<?xml version="1.0" encoding="utf-8"?>
<!-- Generator: Adobe Illustrator 15.1.0, SVG Export Plug-In . SVG Version: 6.00 Build 0)  -->
<!DOCTYPE svg PUBLIC "-//W3C//DTD SVG 1.1//EN" "http://www.w3.org/Graphics/SVG/1.1/DTD/svg11.dtd">
<svg version="1.1" id="Layer_1" xmlns="http://www.w3.org/2000/svg" xmlns:xlink="http://www.w3.org/1999/xlink" x="0px" y="0px"
	 width="180px" height="180px" viewBox="0 0 180 180" enable-background="new 0 0 180 180" xml:space="preserve">
<g>
	<path fill="#989898" d="M153.268,102.559l-21.166,21.157l-7.918-7.92c-0.826-0.825-2.164-0.825-2.99,0
		c-0.825,0.826-0.825,2.164,0,2.99l9.412,9.414c0.396,0.396,0.935,0.618,1.496,0.618s1.097-0.223,1.494-0.618l22.662-22.653
		c0.824-0.824,0.824-2.164,0-2.988C155.432,101.73,154.094,101.73,153.268,102.559z"/>
	<path fill="#989898" d="M12.47,118.992h28.541v-11.629H12.47V118.992z M15.642,110.535h22.199v5.285H15.642V110.535z"/>
	<path fill="#989898" d="M159.408,83.824V69.139v-3.171v-18.86V37.066c0-5.538-4.508-10.042-10.045-10.042H14.056
		c-5.537,0-10.041,4.504-10.041,10.042v10.042v18.859v3.171v52.496c0,5.537,4.504,10.042,10.041,10.042h90.073
		c6.16,12.586,19.064,21.299,33.994,21.299c20.879,0,37.863-16.982,37.863-37.859C175.986,102.124,169.404,90.645,159.408,83.824z
		 M7.185,37.066c0-3.791,3.08-6.87,6.871-6.87h135.307c3.794,0,6.873,3.079,6.873,6.87v6.871H7.185V37.066z M7.185,47.108h149.051
		v18.859H7.185V47.108z M102.732,128.506H14.056c-3.791,0-6.871-3.081-6.871-6.871V69.139h149.051v12.74
		c-1.297-0.711-2.646-1.322-4.03-1.884c-0.281-0.107-0.563-0.202-0.847-0.31c-1.069-0.401-2.159-0.756-3.27-1.057
		c-0.402-0.111-0.807-0.216-1.211-0.311c-1.045-0.252-2.105-0.445-3.184-0.611c-0.396-0.058-0.789-0.132-1.189-0.182
		c-1.441-0.166-2.898-0.273-4.383-0.273c-18.221,0-33.471,12.943-37.055,30.11H46.298v11.63h54.163
		c0.041,0.421,0.133,0.829,0.189,1.247c0.096,0.677,0.178,1.347,0.311,2.016c0.129,0.669,0.297,1.321,0.457,1.979
		c0.117,0.457,0.221,0.912,0.352,1.367c0.229,0.775,0.488,1.535,0.763,2.295C102.604,128.098,102.654,128.305,102.732,128.506z
		 M100.264,115.115c0,0.234,0.004,0.475,0.016,0.705H49.468v-5.285h51.101C100.387,112.038,100.264,113.562,100.264,115.115z
		 M138.123,149.807c-14.059,0-26.164-8.425-31.607-20.475c-0.467-1.041-0.879-2.089-1.238-3.155c-0.034-0.091-0.069-0.174-0.1-0.264
		c-0.338-1.028-0.617-2.067-0.854-3.114c-0.037-0.146-0.082-0.297-0.115-0.445c-0.215-0.992-0.362-1.998-0.487-3.015
		c-0.021-0.144-0.05-0.289-0.066-0.438l-0.086-1.287c-0.057-0.83-0.133-1.66-0.133-2.498c0-1.004,0.067-1.986,0.147-2.967
		c0.092-0.939,0.222-1.91,0.396-2.936l0.217-1.292c3.324-15.688,17.27-27.498,33.93-27.498c1.51,0,3.004,0.133,4.48,0.322
		c0.369,0.051,0.729,0.107,1.092,0.166c1.309,0.215,2.604,0.492,3.877,0.855c0.158,0.044,0.322,0.076,0.482,0.123
		c1.459,0.438,2.883,0.979,4.274,1.61c0.215,0.095,0.426,0.202,0.64,0.31c1.264,0.604,2.504,1.279,3.7,2.039
		c0.229,0.146,0.472,0.273,0.697,0.422l0.192,0.128c9.197,6.243,15.254,16.786,15.254,28.716
		C172.814,134.245,157.252,149.807,138.123,149.807z"/>
</g>
</svg>
