<?xml version="1.0" encoding="utf-8"?>
<!-- Generator: Adobe Illustrator 15.1.0, SVG Export Plug-In . SVG Version: 6.00 Build 0)  -->
<!DOCTYPE svg PUBLIC "-//W3C//DTD SVG 1.1//EN" "http://www.w3.org/Graphics/SVG/1.1/DTD/svg11.dtd">
<svg version="1.1" id="Layer_1" xmlns="http://www.w3.org/2000/svg" xmlns:xlink="http://www.w3.org/1999/xlink" x="0px" y="0px"
	 width="180px" height="180px" viewBox="0 0 180 180" enable-background="new 0 0 180 180" xml:space="preserve">
<g>
	<g>
		<g>
			<path fill="#989898" d="M159.24,125.414H20.761V35.031c0-5.537,4.505-10.043,10.042-10.043h118.396
				c5.537,0,10.042,4.506,10.042,10.043L159.24,125.414L159.24,125.414z M23.932,122.242h132.136V35.031
				c0-3.791-3.078-6.871-6.869-6.871H30.803c-3.791,0-6.871,3.08-6.871,6.871V122.242z M146.555,112.729H33.446V37.674h113.109
				V112.729L146.555,112.729z M36.616,109.557h106.767v-68.71H36.616V109.557z"/>
		</g>
	</g>
	<g>
		<g>
			<path fill="#989898" d="M157.654,155.012H22.346c-5.537,0-10.042-4.505-10.042-10.041v-14.271H78.9v5.156l3.3,3.299h15.601
				l3.301-3.299v-5.156h66.596v14.271C167.695,150.507,163.191,155.012,157.654,155.012z M15.475,133.869v11.102
				c0,3.789,3.08,6.87,6.871,6.87h135.31c3.791,0,6.869-3.081,6.869-6.87v-11.102h-60.254v3.3l-5.158,5.157H80.887l-5.157-5.157
				v-3.3H15.475z"/>
		</g>
	</g>
</g>
</svg>
