<?xml version="1.0" encoding="utf-8"?>
<!-- Generator: Adobe Illustrator 15.1.0, SVG Export Plug-In . SVG Version: 6.00 Build 0)  -->
<!DOCTYPE svg PUBLIC "-//W3C//DTD SVG 1.1//EN" "http://www.w3.org/Graphics/SVG/1.1/DTD/svg11.dtd">
<svg version="1.1" id="Layer_1" xmlns="http://www.w3.org/2000/svg" xmlns:xlink="http://www.w3.org/1999/xlink" x="0px" y="0px"
	 width="180px" height="180px" viewBox="0 0 180 180" enable-background="new 0 0 180 180" xml:space="preserve">
<g>
	<g>
		<path d="M136.713,164.46H41.045c-5.268,0-9.559-4.291-9.559-9.56V27.341c0-5.272,4.291-9.559,9.559-9.559h61.379v37.461
			c0,3.523,2.867,6.389,6.389,6.389h37.461V154.9C146.273,160.169,141.982,164.46,136.713,164.46z M41.045,20.954
			c-3.521,0-6.388,2.866-6.388,6.387V154.9c0,3.521,2.866,6.389,6.388,6.389h95.668c3.523,0,6.389-2.866,6.389-6.389V64.804h-34.289
			c-5.27,0-9.561-4.292-9.561-9.56v-34.29H41.045z M134.314,148.514H43.444v-11.143h90.871V148.514z M46.616,145.342h84.528v-4.8
			H46.616V145.342z M106.412,132.568H43.445v-11.146h62.967V132.568z M46.616,129.398h56.626v-4.806H46.616V129.398z
			 M134.314,116.626H43.444V105.48h90.871V116.626z M46.616,113.455h84.528v-4.805H46.616V113.455z M106.412,100.68H43.445V89.533
			h62.967V100.68z M46.616,97.508h56.626v-4.804H46.616V97.508z M134.314,84.735H43.444V73.59h90.871V84.735z M46.616,76.761v4.802
			h84.528v-4.802 M90.465,68.788h-47.02V29.742h47.02V68.788z M46.616,65.617h40.677V32.913H46.616V65.617z"/>
	</g>
	<g>
		<path d="M148.514,56.829h-31.729c-5.273,0-9.559-4.286-9.559-9.555V15.54L148.514,56.829z M110.396,23.195v24.079
			c0,3.518,2.867,6.383,6.389,6.383h24.074L110.396,23.195z"/>
	</g>
</g>
</svg>
